<?xml version="1.0" encoding="UTF-8" standalone="no"?>
<!-- Created with Inkscape (http://www.inkscape.org/) -->

<svg
   xmlns:dc="http://purl.org/dc/elements/1.1/"
   xmlns:cc="http://creativecommons.org/ns#"
   xmlns:rdf="http://www.w3.org/1999/02/22-rdf-syntax-ns#"
   xmlns:svg="http://www.w3.org/2000/svg"
   xmlns="http://www.w3.org/2000/svg"
   xmlns:sodipodi="http://sodipodi.sourceforge.net/DTD/sodipodi-0.dtd"
   xmlns:inkscape="http://www.inkscape.org/namespaces/inkscape"
   version="1.0"
   width="90"
   height="90"
   id="eigthFlagSVG"
   inkscape:version="0.48.2 r9819"
   sodipodi:docname="8thNote.svg">
  <metadata
     id="metadata8">
    <rdf:RDF>
      <cc:Work
         rdf:about="">
        <dc:format>image/svg+xml</dc:format>
        <dc:type
           rdf:resource="http://purl.org/dc/dcmitype/StillImage" />
        <dc:title></dc:title>
      </cc:Work>
    </rdf:RDF>
  </metadata>
  <sodipodi:namedview
     pagecolor="#ffffff"
     bordercolor="#666666"
     borderopacity="1"
     objecttolerance="10"
     gridtolerance="10"
     guidetolerance="10"
     inkscape:pageopacity="0"
     inkscape:pageshadow="2"
     inkscape:window-width="960"
     inkscape:window-height="768"
     id="namedview6"
     showgrid="false"
     inkscape:zoom="3.7083822"
     inkscape:cx="36.175971"
     inkscape:cy="54.047422"
     inkscape:window-x="0"
     inkscape:window-y="0"
     inkscape:window-maximized="0"
     inkscape:current-layer="svg2" />
  <defs
     id="defs4" />
  <g
     transform="translate(-350.80819,-487.40469)"
     id="layer1">
    <path
       style="fill:#000000"
       d="M 45.84375 0.15625 L 45.84375 24.1875 L 46.53125 24.1875 L 47.71875 24.1875 L 47.71875 24.34375 C 48.017422 24.417263 48.300676 24.504223 48.53125 24.625 C 48.543102 24.626685 48.550455 24.623189 48.5625 24.625 C 51.104914 25.00717 57.952884 28.181428 61.03125 31.6875 C 65.02409 36.23508 67.52556 44.83017 66.625 50.9375 C 65.88809 55.93499 63.11715 61.93276 61.0625 67.46875 C 62.54012 68.12529 69.04454 52.29432 69.09375 44.90625 C 69.14666 37.03067 66.5322 31.09558 57.625 21.25 C 50.58214 13.46516 49.18741 10.98673 48.21875 4.6875 C 48.13589 4.14869 48.0625 3.57613 48.0625 2.71875 C 48.0625 1.83893 48.09375 1.14879 48.09375 0.15625 C 47.064598 0.15625 46.502311 0.15687019 45.84375 0.15625 z "
       transform="translate(350.80819,487.40469)"
       id="path2239" />
  </g>
  <rect
     style="fill:none"
     id="rect3011"
     width="31.652542"
     height="19.830509"
     x="12.966102"
     y="69.406776" />
  <rect
     style="fill:none"
     id="rect3025"
     width="29.123211"
     height="63.63961"
     x="18.876156"
     y="25.281752" />
</svg>
