<?xml version="1.0" encoding="UTF-8" standalone="no"?>
<!-- Created with Inkscape (http://www.inkscape.org/) -->

<svg
   xmlns:dc="http://purl.org/dc/elements/1.1/"
   xmlns:cc="http://creativecommons.org/ns#"
   xmlns:rdf="http://www.w3.org/1999/02/22-rdf-syntax-ns#"
   xmlns:svg="http://www.w3.org/2000/svg"
   xmlns="http://www.w3.org/2000/svg"
   xmlns:sodipodi="http://sodipodi.sourceforge.net/DTD/sodipodi-0.dtd"
   xmlns:inkscape="http://www.inkscape.org/namespaces/inkscape"
   width="744.09448819"
   height="1052.3622047"
   id="bassSVG"
   version="1.1"
   inkscape:version="0.48.2 r9819"
   sodipodi:docname="New document 16">
  <defs
     id="defs3239" />
  <sodipodi:namedview
     id="base"
     pagecolor="#ffffff"
     bordercolor="#666666"
     borderopacity="1.0"
     inkscape:pageopacity="0.0"
     inkscape:pageshadow="2"
     inkscape:zoom="0.35"
     inkscape:cx="350"
     inkscape:cy="520"
     inkscape:document-units="px"
     showgrid="false"
     inkscape:window-width="790"
     inkscape:window-height="663"
     inkscape:window-x="20"
     inkscape:window-y="20"
     inkscape:window-maximized="0"
     inkscape:current-layer="svg3237" />
  <metadata
     id="metadata3242">
    <rdf:RDF>
      <cc:Work
         rdf:about="">
        <dc:format>image/svg+xml</dc:format>
        <dc:type
           rdf:resource="http://purl.org/dc/dcmitype/StillImage" />
        <dc:title></dc:title>
      </cc:Work>
    </rdf:RDF>
  </metadata>
  <path
     style="fill:#000000"
     id="path4038"
     d="m 325.79342,368.48022 c 6.04977,-0.63817 9.73271,0.37883 14.59423,4.17382 4.43337,3.43966 6.19178,8.67826 7.32253,13.97255 0.99659,4.78558 1.60546,9.57451 -1.19482,13.77329 -17.74093,11.48219 -33.30333,25.69167 -54.47767,23.59907 -6.58613,-0.77711 -12.86939,-2.83331 -19.41242,-3.9189 -7.18145,-0.67479 -13.47391,-4.37138 -19.22961,-8.47397 -8.91837,-7.2744 -10.33814,-18.17265 -11.70443,-28.91163 -1.4068,-12.15081 -0.95174,-21.81275 3.24185,-33.29501 3.96013,-9.53266 10.93227,-16.67353 19.35946,-22.35351 20.14768,-12.39341 40.21871,-24.53666 63.12843,-30.41344 8.81605,-1.06359 17.42595,-2.66411 26.08676,-4.58127 9.17806,-1.82553 18.51993,-2.53915 27.83806,-3.20476 7.62702,0.24008 10.88013,2.76218 15.91675,8.12435 4.35344,4.88285 7.79037,10.45613 11.75291,15.6433 3.47221,6.54767 8.18625,12.33389 11.81526,18.76496 3.80895,7.07797 5.78374,14.89102 8.42883,22.4266 3.4493,9.60761 3.89716,19.82717 4.38819,29.91745 0.54796,12.41255 0.49632,24.82185 -0.37428,37.21346 -0.33517,13.2134 -3.44749,25.84574 -7.26311,38.40156 -3.12201,10.70918 -6.95407,21.15464 -11.77225,31.20939 -3.42461,8.34741 -8.79117,15.23489 -14.77856,21.85137 -5.74831,7.1318 -12.95715,12.75992 -20.09521,18.4023 -5.66914,4.23233 -9.75809,10.05017 -14.59614,15.10957 -4.20693,3.64231 -7.81145,8.04523 -12.3303,11.30427 -3.9794,2.78758 -7.38604,6.24697 -10.49688,9.95619 -3.1556,3.95665 -7.05425,7.21222 -10.49586,10.891 -2.75568,3.68561 -5.88733,6.82802 -9.42173,9.74628 -4.59693,3.45993 -7.29758,8.61134 -10.9139,12.96476 -1.69695,2.23417 -3.61581,4.21953 -5.95837,5.75676 0,0 -39.206,15.64012 -39.206,15.64012 l 0,0 c 2.07625,-1.83321 4.7585,-2.70002 6.59028,-4.91928 2.14486,-2.77407 0.98995,-1.45704 3.46573,-3.95023 2.57032,-3.12683 4.10205,-7.06734 7.12623,-9.84787 3.4815,-2.7849 7.08127,-5.22926 9.58539,-9.01922 3.18148,-3.97222 7.0356,-7.16736 10.60719,-10.77691 3.05247,-3.93849 6.18031,-7.78408 10.0759,-10.91522 0.63305,-0.49308 1.2661,-0.98615 1.89916,-1.47923 0.7165,-0.36056 1.50867,-0.59926 2.14949,-1.08168 3.18548,-2.39807 5.56707,-6.08539 8.80977,-8.45744 5.46563,-4.57679 9.17586,-10.75269 14.50816,-15.51442 7.28215,-5.4664 14.89252,-10.72087 20.71402,-17.81421 5.69759,-6.52899 11.93887,-12.48762 15.11031,-20.80089 5.12038,-9.95629 9.87869,-20.07604 12.84641,-30.93126 3.59155,-12.34657 7.37374,-24.51915 7.4854,-37.54787 0.99915,-12.2216 1.06948,-24.42896 0.46244,-36.68242 -0.50065,-9.64125 -1.11264,-19.39566 -4.40441,-28.56593 -2.56763,-7.28695 -4.37906,-14.92118 -8.21786,-21.68915 -3.58616,-6.2321 -7.82268,-12.09034 -11.49662,-18.27745 -3.92498,-5.03229 -7.33319,-10.46077 -11.73448,-15.10531 -3.9895,-3.95737 -7.93229,-5.75999 -13.68612,-5.2971 -9.10992,0.43608 -18.20932,1.39231 -27.10128,3.49207 -8.62572,1.98783 -17.38158,2.83862 -26.00996,4.76554 -16.18669,4.78988 -54.12247,23.77426 7.86923,-9.55892 -8.7256,4.98755 -15.63689,10.81876 -20.37808,19.896 -0.14116,0.34961 -3.46981,8.55971 -3.58471,8.97761 -2.00427,7.28967 -1.39194,15.28898 -0.94561,22.70846 1.19388,9.51355 2.3786,19.42604 10.69563,25.48144 5.61553,3.66539 11.63416,6.12569 18.33354,6.97125 6.3571,1.2475 12.63641,3.03914 19.13628,3.37873 19.37597,-0.69556 39.55355,-17.38448 -18.40065,16.58718 5.07907,-1.75013 3.84877,-5.22203 3.3421,-9.80609 -0.87102,-4.40533 -2.04879,-8.43726 -5.88186,-11.16281 -4.30994,-2.64612 -8.48223,-2.33319 -13.40398,-1.84052 0,0 34.28124,-24.90678 34.28124,-24.90678 z"
     inkscape:connector-curvature="0" />
  <path
     sodipodi:type="arc"
     style="fill:#000000"
     id="path4050"
     sodipodi:cx="482.85715"
     sodipodi:cy="338.07648"
     sodipodi:rx="11.428572"
     sodipodi:ry="11.428572"
     d="m 494.28572,338.07648 a 11.428572,11.428572 0 1 1 -22.85714,0 11.428572,11.428572 0 1 1 22.85714,0 z"
     transform="translate(-0.29957552,0.30013387)" />
  <path
     sodipodi:type="arc"
     style="fill:#000000"
     id="path4052"
     sodipodi:cx="488.57144"
     sodipodi:cy="385.21933"
     sodipodi:rx="11.428572"
     sodipodi:ry="12.857142"
     d="m 500.00001,385.21933 a 11.428572,12.857142 0 1 1 -22.85714,0 11.428572,12.857142 0 1 1 22.85714,0 z"
     transform="translate(-6.0998699,0)" />
</svg>
