<?xml version="1.0" encoding="UTF-8" standalone="no"?>
<!-- Created with Inkscape (http://www.inkscape.org/) -->

<svg
   xmlns:dc="http://purl.org/dc/elements/1.1/"
   xmlns:cc="http://creativecommons.org/ns#"
   xmlns:rdf="http://www.w3.org/1999/02/22-rdf-syntax-ns#"
   xmlns:svg="http://www.w3.org/2000/svg"
   xmlns="http://www.w3.org/2000/svg"
   xmlns:sodipodi="http://sodipodi.sourceforge.net/DTD/sodipodi-0.dtd"
   xmlns:inkscape="http://www.inkscape.org/namespaces/inkscape"
   width="744.09448819"
   height="1052.3622047"
   id="flatSvg"
   version="1.1"
   inkscape:version="0.48.2 r9819"
   sodipodi:docname="New document 14">
  <defs
     id="defs3189" />
  <sodipodi:namedview
     id="base"
     pagecolor="#ffffff"
     bordercolor="#666666"
     borderopacity="1.0"
     inkscape:pageopacity="0.0"
     inkscape:pageshadow="2"
     inkscape:zoom="0.35"
     inkscape:cx="350"
     inkscape:cy="520"
     inkscape:document-units="px"
     showgrid="false"
     inkscape:object-paths="true"
     inkscape:snap-midpoints="true"
     inkscape:snap-intersection-paths="false"
     inkscape:snap-nodes="true"
     inkscape:window-width="984"
     inkscape:window-height="733"
     inkscape:window-x="63"
     inkscape:window-y="29"
     inkscape:window-maximized="0"
     inkscape:current-layer="svg3187" />
  <metadata
     id="metadata3192">
    <rdf:RDF>
      <cc:Work
         rdf:about="">
        <dc:format>image/svg+xml</dc:format>
        <dc:type
           rdf:resource="http://purl.org/dc/dcmitype/StillImage" />
        <dc:title></dc:title>
      </cc:Work>
    </rdf:RDF>
  </metadata>
  <path
     style="fill:#000000"
     id="path3206"
     d="m 247.45514,184.44927 c -0.27675,6.4231 -0.27169,12.85982 -0.15561,19.28721 -0.136,5.62436 0.27485,11.25139 -0.16613,16.86322 -0.71551,4.54446 -1.72846,9.02973 -2.22946,13.60555 -0.50858,6.41622 -0.31111,12.82396 -1.17626,19.21055 -1.30853,7.26337 -1.71948,14.62763 -2.04693,21.98593 -0.0631,7.64673 -1.42043,15.19669 -2.1659,22.79338 -0.68054,7.53678 -0.86198,15.10705 -0.93023,22.67053 -0.0935,8.42956 -0.05,16.85961 0.0295,25.2891 -0.002,7.69123 0.034,15.38208 -0.0139,23.07326 0.0683,7.78013 0.0495,15.55683 -0.0503,23.33621 -0.0477,9.64421 -0.0564,19.28813 -0.0601,28.93237 0.16655,8.76755 0.0489,17.53392 0.0323,26.3014 -0.0143,8.79606 0.0174,17.59259 0.0858,26.3885 0.15646,7.95731 -0.0355,15.91127 -0.0955,23.86841 -0.0177,9.00128 0.0772,18.00173 0.0324,27.00292 -0.0281,7.93717 0.11303,15.87397 0.11726,23.81044 0.021,6.34713 0.0513,12.69421 0.0672,19.04136 -0.0887,7.1245 -0.10475,14.24902 -0.0709,21.37394 0.0462,6.8194 -0.002,13.63843 0.0238,20.458 0.0153,6.20768 0.0845,12.41547 0.0131,18.62291 -0.008,6.85439 0.011,13.7075 -0.0751,20.56146 -0.0289,7.15959 0.0426,14.31908 0.0816,21.4785 0.36107,4.75869 0.10927,9.33166 -0.96954,13.96561 -0.94015,5.1723 -1.74685,10.34324 -2.85341,15.48753 -0.78156,3.52346 -1.18746,7.09449 -1.48865,10.68477 0,0 -37.60352,18.83062 -37.60352,18.83062 l 0,0 c 0.21079,-3.73844 0.34169,-7.52083 1.22176,-11.17609 1.01077,-5.15951 2.24551,-10.21613 2.67208,-15.47275 0.93622,-4.44502 2.138,-8.62362 1.61818,-13.26185 0.0389,-7.18715 0.11032,-14.37436 0.0816,-21.56167 -0.0869,-6.82844 -0.0669,-13.65603 -0.0751,-20.48491 -0.0723,-6.21187 -0.001,-12.42412 0.0131,-18.63623 0.0254,-6.82765 -0.0223,-13.65476 0.0238,-20.48223 0.0336,-7.10085 0.0185,-14.20129 -0.0709,-21.3017 0.0159,-6.36996 0.0462,-12.73986 0.0672,-19.1098 0.004,-7.97631 0.14523,-15.95294 0.11726,-23.92993 -0.045,-9.0122 0.0504,-18.02367 0.0324,-27.03596 -0.0602,-7.92472 -0.25241,-15.84614 -0.0955,-23.77108 0.068,-8.82504 0.10013,-17.65071 0.0858,-26.47591 -0.0166,-8.77845 -0.13389,-17.5558 0.0323,-26.33433 -0.004,-9.62385 -0.0123,-19.24737 -0.0599,-28.87119 -0.10087,-7.7617 -0.11737,-15.52072 -0.0521,-23.2832 -0.0509,-7.68145 -0.0198,-15.36267 -0.0362,-23.04418 0.0634,-8.45691 0.0771,-16.91372 0.0554,-25.37081 0.0426,-7.64479 -0.0857,-15.30776 0.6003,-22.93062 0.7481,-7.53871 2.12473,-15.02991 2.37298,-22.59683 0.17912,-7.46463 0.57092,-14.93785 1.64517,-22.33377 1.06606,-6.26233 1.21121,-12.49915 1.13162,-18.85387 0.24599,-4.69561 1.00232,-9.25666 2.15841,-13.82077 1.08219,-5.36463 0.25266,-10.96797 0.5174,-16.4119 0.11304,-6.37444 0.12754,-12.75874 -0.15561,-19.12864 0,0 37.76742,-19.24346 37.76742,-19.24346 z"
     inkscape:connector-curvature="0" />
  <path
     style="fill:#000000"
     id="path3216"
     d="m 206.99029,519.89846 c 1.15137,-5.59769 3.78597,-10.83074 7.09847,-15.45296 13.63825,-13.1962 30.66128,-24.73982 49.58743,-27.1057 5.57723,-0.41123 11.1569,-0.30928 16.74173,-0.21714 6.97444,0.0378 13.94879,0.0531 20.9234,0.0434 4.9454,-0.0582 9.89072,-0.10329 14.83622,-0.0506 4.6098,1.19347 9.9478,2.66358 13.66202,5.80121 3.96976,2.43763 5.8786,6.66448 8.26185,10.46693 3.24683,4.64336 7.24822,8.41912 9.57331,13.65556 1.97536,5.09496 2.24204,10.49735 2.57601,15.87988 0.11696,5.26311 -0.063,10.52824 -0.008,15.79303 -0.19695,5.64927 0.0292,11.30019 -0.0539,16.95041 -0.15204,6.7364 -0.0901,13.47546 -0.0628,20.21291 -0.007,4.9387 0.19939,9.87409 0.10229,14.81227 0.1233,4.38376 -0.0176,8.76707 -0.005,13.15057 0.19871,5.16678 -0.0849,10.27611 -1.08786,15.34715 -0.90911,4.03375 -1.09176,8.16079 -2.23946,12.13553 -0.87882,4.68854 -2.60778,9.12848 -3.72406,13.75118 -1.2897,5.36836 -1.04257,10.90463 -2.11805,16.30445 -0.88613,5.41065 -3.12793,10.30777 -6.85381,14.32021 -11.59505,11.20224 -30.58049,18.79626 -42.16167,25.18304 -0.70178,0.38702 -4.97764,1.69501 -6.20346,2.2236 -4.57556,0.98456 -9.23752,1.51431 -13.91131,1.68943 -0.69543,0.008 -1.40287,-0.10362 -2.0863,0.0253 -0.58881,0.11104 -1.09022,0.50663 -1.66321,0.68185 -2.95998,0.90513 -6.23606,1.2424 -9.29777,1.62538 -4.1875,1.42005 -8.3548,2.90579 -12.59043,4.16458 -5.12114,2.76056 -10.64106,3.80967 -16.35241,4.41922 -5.24871,0.37983 -10.51795,0.54548 -15.78047,0.57422 -3.98717,0.037 -7.9773,-0.47666 -11.86757,0.49292 0,0 33.78143,-25.24956 33.78143,-25.24956 l 0,0 c 4.10093,-0.15658 8.20386,-0.0546 12.30673,-0.14489 5.08334,-0.048 10.18334,-0.0738 15.21973,-0.86724 5.57244,-1.01089 10.75209,-3.01487 16.016,-5.06287 4.25919,-1.48448 8.59977,-2.88516 13.04919,-3.65284 4.44147,-0.79069 8.80136,-2.07506 13.33587,-2.09505 4.44091,-0.40927 8.94681,-0.91753 13.06153,-2.75846 1.36944,-0.52538 2.77258,-0.96351 4.12739,-1.52556 0.63671,-0.26415 2.4575,-1.24687 1.86237,-0.89901 -59.09105,34.53961 -42.44198,24.64559 -29.75149,17.33893 1.21719,-1.17713 2.7532,-2.01712 3.87222,-3.28794 2.03741,-2.3138 3.2363,-5.94628 3.89755,-8.86352 1.30573,-5.39296 1.68087,-10.82121 2.08395,-16.3631 1.09014,-4.68875 2.59139,-9.12704 3.66128,-13.79088 0.86338,-3.98051 1.89435,-7.8808 2.32537,-11.98581 1.07918,-4.86506 2.02598,-9.54352 1.49987,-14.57775 0.0123,-4.38166 -0.12872,-8.76314 -0.005,-13.1451 -0.0999,-4.97266 0.11196,-9.94285 0.10152,-14.91608 0.0268,-6.71795 0.0888,-13.43745 -0.0586,-20.1544 -0.0763,-5.64975 0.1697,-11.29872 0.0132,-16.9482 0.10112,-5.20288 0.0353,-10.40557 -0.008,-15.60858 -0.0143,-4.88774 -0.20397,-9.82802 -1.71808,-14.51957 -2.15037,-4.99483 -6.2516,-8.56641 -9.20603,-13.07723 -2.27426,-3.39354 -4.08167,-6.92598 -7.75664,-9.02432 -3.60585,-2.14785 -7.68808,-3.73745 -11.92696,-3.70177 -4.89161,0.049 -9.78296,0.006 -14.67413,-0.0769 -6.9546,-0.0385 -13.90912,-0.0736 -20.86379,-0.0779 -5.51709,0.0842 -11.08718,0.0511 -16.54142,0.97462 -2.22627,0.5089 -2.59005,0.47312 -4.70795,1.45217 -0.66259,0.30629 -2.54572,1.4297 -1.91533,1.06164 60.46964,-35.30569 41.54666,-25.16679 29.63678,-17.03582 -3.94657,3.10172 -6.77721,8.39838 -7.882,13.2151 0,0 -38.13152,18.49019 -38.13152,18.49019 z"
     inkscape:connector-curvature="0" />
</svg>
