<?xml version="1.0" encoding="UTF-8" standalone="no"?>
<!-- Created with Inkscape (http://www.inkscape.org/) -->

<svg
   xmlns:dc="http://purl.org/dc/elements/1.1/"
   xmlns:cc="http://creativecommons.org/ns#"
   xmlns:rdf="http://www.w3.org/1999/02/22-rdf-syntax-ns#"
   xmlns:svg="http://www.w3.org/2000/svg"
   xmlns="http://www.w3.org/2000/svg"
   xmlns:sodipodi="http://sodipodi.sourceforge.net/DTD/sodipodi-0.dtd"
   xmlns:inkscape="http://www.inkscape.org/namespaces/inkscape"
   width="744.09448819"
   height="1052.3622047"
   id="sharpSvg"
   version="1.1"
   inkscape:version="0.48.2 r9819"
   sodipodi:docname="sharp.svg">
  <defs
     id="defs4" />
  <sodipodi:namedview
     id="base"
     pagecolor="#ffffff"
     bordercolor="#666666"
     borderopacity="1.0"
     inkscape:pageopacity="0.0"
     inkscape:pageshadow="2"
     inkscape:zoom="0.35"
     inkscape:cx="375"
     inkscape:cy="520"
     inkscape:document-units="px"
     inkscape:current-layer="layer1"
     showgrid="false"
     inkscape:window-width="927"
     inkscape:window-height="666"
     inkscape:window-x="0"
     inkscape:window-y="0"
     inkscape:window-maximized="0" />
  <metadata
     id="metadata7">
    <rdf:RDF>
      <cc:Work
         rdf:about="">
        <dc:format>image/svg+xml</dc:format>
        <dc:type
           rdf:resource="http://purl.org/dc/dcmitype/StillImage" />
      </cc:Work>
    </rdf:RDF>
  </metadata>
  <g
     inkscape:label="Layer 1"
     inkscape:groupmode="layer"
     id="layer1">
    <path
       style="fill:#000000"
       id="path3179"
       d="m 458.86909,330.171 c -0.25954,6.1225 -0.23965,12.26071 -0.17232,18.38823 0.39259,4.67178 -0.79965,9.16675 -1.76843,13.68043 -0.75943,3.83833 -0.82005,7.74495 -0.979,11.63787 0.0888,4.82591 -1.0711,9.55704 -1.91823,14.28041 -0.71978,4.24718 -0.79955,8.57661 -0.92019,12.87474 -0.0304,3.96575 0.0114,7.93096 -0.0126,11.89664 -0.0229,4.0693 0.0268,8.13866 0.0257,12.20802 -0.0897,4.32615 0.003,8.65217 -0.0317,12.9796 0.0231,3.98456 0.0495,7.96943 0.0191,11.95407 -0.0355,4.09659 0.0103,8.19376 0.0134,12.29093 0.38243,4.35594 -0.62373,8.49285 -1.51867,12.70348 -0.90476,3.94703 -1.21382,8.00487 -1.32621,12.04352 -0.0392,4.04146 -0.0402,8.08209 -0.0372,12.12348 -0.0168,4.02414 0.0692,8.04888 -0.0148,12.07235 0.0787,4.31096 -0.0257,8.62106 -0.0105,12.93136 0.005,4.13839 0.0548,8.27659 0.0533,12.41502 0.058,4.41939 -0.11312,8.83607 -0.0738,13.25526 0.0233,4.16986 0.0764,8.33949 0.0755,12.50949 0.0627,4.24311 -0.084,8.48527 -0.074,12.72777 0.0582,4.05088 0.0884,8.10293 0.0585,12.15428 0.0217,3.79608 0.0364,7.59262 0.002,11.38878 0.24464,4.00419 1.5905,7.80756 2.21612,11.75257 0.428,2.40408 0.47994,4.84882 0.60419,7.28088 0,0 -37.66372,19.34355 -37.66372,19.34355 l 0,0 c -0.0296,-2.2953 -0.11068,-4.59066 -0.35563,-6.87474 -0.54315,-4.15697 -1.62122,-8.20996 -2.46255,-12.31272 -0.0343,-3.79698 -0.019,-7.59434 0.002,-11.39125 -0.0303,-4.0712 0.001,-8.1431 0.0585,-12.21385 0.01,-4.21737 -0.13712,-8.43438 -0.074,-12.6524 -9.1e-4,-4.19565 0.0523,-8.39093 0.0755,-12.58644 0.0387,-4.39418 -0.13173,-8.78573 -0.0737,-13.18011 -0.001,-4.15654 0.0489,-8.31285 0.0535,-12.46935 0.015,-4.30537 -0.0891,-8.61059 -0.0139,-12.91666 -0.0896,-4.01188 -0.009,-8.02551 -0.0424,-12.03816 -0.01,-4.08734 -0.0473,-8.1771 0.0693,-12.26294 0.0901,-4.2588 0.0552,-8.53088 0.87024,-12.73562 0.91998,-3.9511 2.32406,-7.7703 1.92338,-11.86953 0.003,-4.10174 0.0486,-8.20346 0.0134,-12.3046 -0.0307,-3.99116 -0.004,-7.98255 0.0193,-11.97363 -0.0352,-4.31573 0.0585,-8.6302 -0.0336,-12.94458 -0.004,-4.07227 0.0402,-8.1447 0.004,-12.21687 -0.0377,-3.99234 -0.0282,-7.98564 0.0196,-11.97767 0.007,-4.48987 0.24019,-8.95697 0.62061,-13.43133 0.70239,-4.58963 2.20838,-9.0858 2.25694,-13.74084 -0.0512,-4.0683 -0.031,-8.17927 0.58405,-12.20777 0.64417,-4.43297 2.55271,-8.63048 2.37258,-13.15048 0.0659,-6.06888 0.0918,-12.14907 -0.17232,-18.21262 0,0 37.73818,-19.22857 37.73818,-19.22857 z"
       inkscape:connector-curvature="0" />
    <path
       style="fill:#000000"
       id="path3181"
       d="m 376.01195,341.59958 c -0.264,5.86843 -0.24034,11.74992 -0.11372,17.62252 0.002,5.31968 -0.0485,10.64033 -0.005,15.95956 0.42587,4.8216 1.64786,9.51813 2.26816,14.31533 0.6177,4.14877 0.58649,8.34742 0.65465,12.52876 -0.0209,5.46897 -0.14634,10.93791 -0.0669,16.40717 -0.0383,6.47057 -0.12984,12.93957 -0.11177,19.41108 0.38454,5.60779 -1.04443,11.08389 -1.84548,16.59172 -0.79424,4.40186 -2.22504,8.63983 -3.03109,13.04435 -0.57658,4.20024 -0.72766,8.4358 -0.68178,12.67003 0.0226,3.94173 -0.0134,7.88445 0.0474,11.8258 -0.009,4.50034 -0.0633,9.00047 -0.089,13.50077 0.0162,6.74472 -0.16751,13.48703 -0.2128,20.231 0.019,7.46876 0.0497,14.9367 0.13458,22.40479 0.0338,5.15016 0.12204,10.29835 0.1069,15.44875 0.0411,4.0832 0.0734,8.16706 0.0446,12.25052 -0.0284,4.06312 0.0177,8.12637 0.0146,12.18955 -0.15168,5.60387 -0.13382,11.21077 -0.13508,16.81621 -0.0757,7.07099 -0.17609,14.14258 -0.0354,21.21327 -0.0375,5.17035 0.1421,10.33824 0.13883,15.50838 0.066,2.54347 0.0114,5.08707 0.0459,7.63082 0,0 -37.70833,19.21335 -37.70833,19.21335 l 0,0 c 0.0342,-2.55934 -0.0197,-5.11852 0.0459,-7.67759 -0.003,-5.21727 0.17598,-10.43237 0.13882,-15.64985 0.13771,-7.05874 0.0436,-14.11825 -0.0353,-21.17724 -0.001,-5.55955 0.0179,-11.12063 -0.13508,-16.67856 -0.003,-4.06814 0.043,-8.13635 0.0146,-12.20442 -0.0291,-4.0986 0.004,-8.19761 0.0446,-12.29597 -0.0153,-5.18669 0.0736,-10.37124 0.10694,-15.55771 0.0845,-7.51386 0.11577,-15.02756 0.13482,-22.54208 -0.045,-6.67127 -0.22919,-13.34086 -0.21355,-20.0129 -0.0272,-4.46388 -0.0827,-8.92748 -0.10786,-13.39133 0.0438,-3.9662 -0.0229,-7.9332 0.019,-11.89965 0.1011,-4.3953 -0.13217,-8.81027 0.41174,-13.18294 0.49179,-4.48167 1.61535,-8.84931 3.21044,-13.06954 0.63547,-5.43601 2.12901,-10.74672 2.2965,-16.20782 0.0196,-6.43796 -0.0706,-12.87361 -0.0948,-19.31066 0.0902,-5.43284 -0.004,-10.8668 -0.0607,-16.2991 0.002,-4.04714 -0.0871,-8.09913 -0.40474,-12.13516 -0.53306,-4.98012 -1.54084,-9.8731 -2.41052,-14.8013 0.0434,-5.31762 -0.006,-10.63665 -0.005,-15.95471 0.12308,-5.83388 0.15653,-11.67724 -0.11372,-17.50664 0,0 37.73818,-19.22856 37.73818,-19.22856 z"
       inkscape:connector-curvature="0" />
    <path
       style="fill:#000000"
       id="path3183"
       d="m 323.63949,478.4337 c 6.70023,-1.85068 13.44241,-3.6516 20.26627,-5.04691 6.56211,-1.42357 13.20274,-1.83571 19.89259,-1.87968 7.07849,0.40613 13.69624,-2.13044 20.42826,-3.85379 5.7098,-1.99829 11.01248,-4.70885 16.80932,-6.43588 3.96766,-1.4062 7.6631,-3.14844 11.88979,-3.71002 4.1151,-0.59438 8.29463,-0.40731 12.44077,-0.45521 4.69218,0.0368 9.3838,0.0271 14.07601,0.0685 5.94656,-0.35921 11.85417,-1.75006 17.6636,-3.17652 6.1402,-1.51192 12.41583,-2.16084 18.71733,-2.40046 4.18801,-0.12704 8.30463,-1.48397 11.6532,-3.97475 5.03014,-0.88111 8.26129,-1.81233 12.53365,-4.67293 -90.24578,52.04002 1.10744,-0.62993 3.20482,-1.87649 11.42116,-6.78807 -23.02352,13.26655 -34.54101,19.88987 -0.51566,0.29654 1.02576,-0.60264 1.53538,-0.90944 2.23659,-1.34647 1.48696,-0.89042 3.93865,-2.58535 3.14691,-2.23645 1.53166,-1.05363 4.83793,-3.55912 0,0 39.05593,-15.27891 39.05593,-15.27891 l 0,0 c -3.45908,1.99355 -1.89798,0.82337 -4.70987,3.47482 -14.63804,9.68151 -21.95248,13.98497 -43.08811,25.53337 -1.0391,0.56776 98.75842,-57.28773 -3.04637,1.82711 -4.13425,1.92687 -8.75959,2.38714 -12.68221,4.76814 -3.98308,1.57938 -8.24159,2.24571 -12.5187,2.2379 -6.11435,0.47214 -12.18537,1.3573 -18.13455,2.87881 -6.05526,1.37647 -12.25245,2.71874 -18.48712,2.56527 -4.71505,0.0226 -9.43006,-0.0313 -14.14441,0.0508 -4.0149,0.0451 -8.0532,0.18639 -11.97072,1.15482 -3.87557,1.17432 -7.54428,2.92385 -11.47327,3.94042 -5.62263,1.98921 -10.96403,4.78376 -16.8172,6.12955 -6.86363,1.82512 -13.76801,3.30087 -20.92981,3.04965 -6.48544,0.33982 -12.95711,0.97711 -19.30315,2.41975 -6.84374,1.63154 -13.89151,3.16243 -20.2133,6.31655 0,0 33.1163,-26.48991 33.1163,-26.48991 z"
       inkscape:connector-curvature="0" />
    <path
       style="fill:#000000"
       id="path3185"
       d="m 315.36764,581.98716 c 4.85503,-1.9246 9.93284,-3.02202 15.05877,-4.10635 4.35998,-2.159 8.13422,-4.67114 12.97254,-5.68397 4.19771,-0.75808 7.97871,-2.81264 11.89058,-4.39243 4.52161,-1.3823 9.15686,-2.66097 13.45555,-4.63198 -89.67834,51.0885 2.87557,-1.86089 4.36458,-2.70496 11.26493,-6.38571 -22.44235,12.92481 -33.69727,19.32816 -0.77771,0.44246 1.48711,-0.99805 2.26286,-1.44395 38.6424,-22.21152 24.32504,-17.66528 40.98129,-22.71055 -4.03195,3.42633 12.3272,-6.73716 7.35273,-3.88374 -58.69759,33.66957 -41.48821,24.02336 -28.96991,16.44197 5.09838,-3.80686 10.09432,-7.67751 15.49463,-11.06827 18.69968,-11.49845 37.52958,-22.93922 57.19764,-32.70232 -10.87065,6.22352 -21.73061,12.46576 -32.61196,18.67055 -0.94539,0.53908 1.85826,-1.13386 2.80355,-1.67311 12.87484,-7.34453 25.6235,-14.91734 38.65624,-21.97789 11.37371,-6.16177 -44.73132,26.00044 -33.67798,19.28089 33.61401,-20.43461 24.75339,-16.9356 40.52707,-22.9114 5.4631,-0.99472 10.37182,-3.53601 15.27344,-6.04613 4.53855,-2.68782 9.07999,-5.73542 14.34544,-6.64609 3.61992,-1.17491 6.71348,-3.23251 10.13651,-4.804 1.16469,-0.6615 2.55698,-0.34604 3.77179,-0.75657 5.59826,-1.89188 -2.6782,0.0135 3.36554,-1.6128 1.54874,-0.41676 3.15635,-0.57211 4.73039,-0.87987 3.24221,-0.90567 6.64147,-0.24984 9.75394,-1.51829 0,0 -33.64615,25.6272 -33.64615,25.6272 l 0,0 c -3.24825,0.28182 -6.49037,0.59283 -9.65154,1.44577 -3.89734,1.04714 -7.72802,2.52196 -11.43129,4.08688 -3.39524,1.69972 -6.79653,3.32453 -10.52736,4.19979 -4.70336,1.95706 -9.01441,4.71509 -13.56682,6.98386 -5.08331,2.37133 -10.31112,4.20312 -15.55468,6.13066 -0.69606,0.37931 -2.77366,1.53607 -2.08819,1.13792 11.2585,-6.53934 45.2151,-25.83854 33.80803,-19.56194 -12.91653,7.10715 -25.39446,14.99502 -38.33731,22.05412 -11.23384,6.12701 22.1443,-12.8292 33.20879,-19.257 0.96723,-0.5619 -1.94775,1.10067 -2.9169,1.65924 -12.96216,7.47071 -25.91799,14.9524 -38.87698,22.42859 -3.64527,1.93804 -3.59474,1.90091 -7.29039,3.90856 -1.22614,0.66609 -4.87844,2.71098 -3.67389,2.00659 57.96963,-33.89912 37.64119,-21.91085 25.10286,-14.41765 -5.17407,3.49651 -10.78733,6.41484 -15.15337,10.99274 -16.16072,10.68911 -32.71017,21.26729 -50.66715,28.63541 -14.02235,6.70802 -3.16628,1.59014 31.36893,-18.4369 0.77212,-0.44776 -1.54042,0.90208 -2.31173,1.35122 -12.7559,7.42793 -25.6367,14.64526 -38.26991,22.27999 -1.503,0.90833 99.20726,-57.39626 -4.69913,2.38219 -4.50918,1.52417 -9.0396,3.0233 -13.46539,4.76779 -3.90996,1.73289 -8.03838,2.88966 -12.1588,4.00673 -4.40293,1.74528 -8.32082,4.65591 -13.10385,5.37962 -5.19742,1.1512 -10.12564,3.02406 -15.2512,4.42252 0,0 33.71546,-25.7808 33.71546,-25.7808 z"
       inkscape:connector-curvature="0" />
  </g>
</svg>
