<?xml version="1.0" encoding="UTF-8" standalone="no"?>
<!-- Created with Inkscape (http://www.inkscape.org/) -->

<svg
   xmlns:dc="http://purl.org/dc/elements/1.1/"
   xmlns:cc="http://creativecommons.org/ns#"
   xmlns:rdf="http://www.w3.org/1999/02/22-rdf-syntax-ns#"
   xmlns:svg="http://www.w3.org/2000/svg"
   xmlns="http://www.w3.org/2000/svg"
   xmlns:sodipodi="http://sodipodi.sourceforge.net/DTD/sodipodi-0.dtd"
   xmlns:inkscape="http://www.inkscape.org/namespaces/inkscape"
   width="744.09448819"
   height="1052.3622047"
   id="trebleSVG"
   version="1.1"
   inkscape:version="0.48.2 r9819"
   sodipodi:docname="treble.svg">
  <defs
     id="defs4" />
  <sodipodi:namedview
     id="base"
     pagecolor="#ffffff"
     bordercolor="#666666"
     borderopacity="1.0"
     inkscape:pageopacity="0.0"
     inkscape:pageshadow="2"
     inkscape:zoom="0.35"
     inkscape:cx="375.53525"
     inkscape:cy="519.36374"
     inkscape:document-units="px"
     inkscape:current-layer="layer1"
     showgrid="false"
     inkscape:window-width="1440"
     inkscape:window-height="795"
     inkscape:window-x="0"
     inkscape:window-y="0"
     inkscape:window-maximized="1" />
  <metadata
     id="metadata7">
    <rdf:RDF>
      <cc:Work
         rdf:about="">
        <dc:format>image/svg+xml</dc:format>
        <dc:type
           rdf:resource="http://purl.org/dc/dcmitype/StillImage" />
        <dc:title></dc:title>
      </cc:Work>
    </rdf:RDF>
  </metadata>
  <g
     inkscape:label="Layer 1"
     inkscape:groupmode="layer"
     id="layer1">
    <path
       style="fill:#000000;fill-opacity:1;fill-rule:nonzero;stroke:none"
       id="path2991"
       d="m 401.69006,685.47146 c -2.5644,-13.26475 -4.91821,-26.48536 -3.96164,-39.88414 1.37469,-11.06322 11.5986,-18.88444 22.65925,-26.0739 49.20397,-22.82159 74.7824,-41.56956 124.30321,-42.05508 12.58151,1.55574 22.78467,6.32139 32.96868,11.44951 12.94632,5.75679 18.41293,15.47766 21.79573,25.48814 2.29014,7.44332 2.43008,15.09055 2.41878,22.67157 0.0564,7.42011 -0.24343,14.83808 -0.2091,22.25824 -0.16451,7.54158 0.32753,15.08686 -0.44104,22.61388 -2.02063,7.74519 -9.63363,13.63768 -15.38408,20.13287 -4.54381,8.64066 -12.2704,15.19753 -22.22102,21.05734 -33.26753,13.52165 -66.48087,27.10903 -99.80258,40.56494 -2.75977,1.11446 -11.55259,4.14331 -14.25082,5.08504 -2.53336,1.03999 -10.14938,4.14059 -7.60008,3.11996 86.96621,-34.81828 112.31961,-47.60863 78.83929,-31.01077 -38.73737,20.55385 -80.05757,34.86949 -123.44567,52.31569 -10.59545,4.39475 -23.36845,2.19559 -34.46779,5.06249 -13.43215,3.25566 -26.82467,5.48947 -40.94711,6.91248 -17.59627,4.05182 -35.78932,5.49119 -54.15861,6.47177 -16.31772,2.6261 -32.81652,4.38775 -49.49795,5.29509 -14.83373,0.64572 -29.70337,0.63575 -44.5592,0.64968 -16.60748,-0.0839 -33.21559,-0.0702 -49.82338,-0.0668 -14.61043,-0.31642 -29.405306,0.94265 -43.807359,-0.97227 C 62.062108,814.76918 49.618229,809.19146 38.929737,799.10507 25.467808,782.14318 19.852983,762.9936 14.934803,744.09507 10.321116,724.62995 8.4309465,704.95196 7.3953958,685.25861 6.8286654,673.13106 6.9861005,660.99629 6.78349,648.86471 7.3973945,637.38299 14.359027,626.96083 22.384346,617.1764 35.471008,604.2891 49.392378,591.83081 62.566777,578.98005 81.79766,562.31338 99.26744,544.72609 117.53055,527.54791 c 20.53567,-18.11174 41.80583,-35.80803 62.69877,-53.71723 21.84827,-19.33173 41.8583,-39.59455 61.21685,-60.17186 18.15025,-21.30189 38.75324,-41.43333 59.66842,-61.41875 16.1569,-14.03408 28.61628,-29.86649 41.5892,-45.37525 11.00339,-12.74208 21.70972,-25.56104 31.77762,-38.67462 11.40797,-15.38556 21.5605,-31.20477 30.36844,-47.40529 8.49411,-15.90683 13.64573,-32.47074 19.00091,-48.98895 5.375,-16.97044 6.7944,-34.34772 7.60989,-51.66773 0.16553,-13.55343 1.1677,-27.147789 -0.23087,-40.677236 -2.09698,-12.408595 -12.41882,-19.972648 -27.30361,-25.82473 -14.60799,-4.866442 -30.67652,-5.704831 -46.57743,-6.152043 -14.8514,-0.234691 -29.71008,-0.129535 -44.56192,0.03737 -36.56795,7.421097 -86.97948,30.191301 72.25383,-30.732783 2.18013,-0.83413 -3.85664,2.20092 -5.64931,3.406122 -2.03769,1.369934 -3.88458,2.87287 -5.82687,4.309296 -12.39962,9.205796 -19.8889,20.349739 -26.41978,31.969928 -6.55394,11.296188 -7.53494,23.424333 -9.62377,35.365145 -2.87584,11.982191 -5.08346,24.032161 -6.08888,36.163201 -1.12221,12.26907 -1.00255,24.57364 -0.98479,36.86192 -0.53847,9.2855 -4.03501,18.27482 -5.5921,27.48066 -1.75169,13.1825 -1.71891,26.44407 -1.92662,39.6718 -0.23037,18.86157 -0.23806,37.72404 -0.25573,56.58616 -0.15324,20.17813 0.0492,40.35667 0.11146,60.53483 -0.36907,17.56185 3.25448,34.99613 6.97444,52.3148 3.73968,20.43393 9.3852,40.66991 15.96032,60.74006 6.42229,20.48822 14.21966,40.74441 20.70799,61.22173 6.3886,17.14814 14.87897,33.7202 24.08986,50.18513 8.26799,14.39126 18.29179,28.24335 25.29394,42.96871 7.35196,22.12612 10.40285,44.87634 15.00432,67.35489 4.27391,27.95831 12.3226,55.50617 17.57012,83.37001 7.4198,27.53326 13.42668,55.22154 19.41379,82.92222 3.95161,22.03397 8.96522,43.94523 15.33726,65.6929 3.91941,13.24337 6.4158,26.7005 8.0408,40.17476 0.86026,7.48099 0.69224,14.98317 0.7603,22.47942 -0.2606,8.29364 -4.05193,15.35541 -12.68749,20.98802 -34.03219,21.23388 -72.61508,44.38528 -118.90552,48.45378 -10.96326,-0.1837 -20.86309,2.0483 -31.3725,3.7638 -13.68975,2.5822 -21.17489,1.0173 -33.61685,-3.2254 -9.36213,-4.4876 -16.57988,-8.9209 -21.42687,-16.1767 -3.50731,-9.2788 -3.84907,-18.9694 1.9336,-27.7648 28.86392,-27.8386 74.48031,-42.38507 120.11319,-42.18902 13.47054,-0.54179 20.64313,6.55139 26.20156,14.01805 3.48692,4.92341 1.82834,2.54542 4.98455,7.13096 0,0 -94.78762,37.58321 -94.78762,37.58321 l 0,0 c -2.80205,-4.4192 -1.30363,-2.1523 -4.51627,-6.794 -5.39214,-6.7709 -8.53239,-7.4886 -19.73467,-6.8221 -4.47958,0.2681 -9.23205,0.4461 -13.50265,1.5565 -1.40123,0.3643 -5.32312,1.9014 -4.03609,1.3688 87.91121,-36.3791 121.28393,-46.29217 85.654,-35.57029 -10.4786,3.79399 -8.92214,12.83545 -7.2611,19.95298 3.16704,5.45121 9.65238,8.62641 16.92155,11.40901 10.03415,2.5686 19.46944,1.1523 29.5971,-0.7734 10.37045,-1.7961 20.98135,-1.98 31.32266,-3.8344 36.82156,-10.26761 1.72982,-0.6672 -84.40664,34.7658 -1.32585,0.5454 2.94791,-0.6601 4.29144,-1.1838 4.43803,-1.73 8.47102,-4.3537 11.51169,-7.1614 9.29336,-4.6077 14.6387,-6.2139 16.66798,-14.8451 0.1212,-7.3676 0.0722,-14.74041 -0.19629,-22.10574 -0.84582,-13.30219 -2.55524,-26.58962 -6.35415,-39.6561 -6.13757,-21.98954 -10.58772,-44.17575 -14.58189,-66.40726 -5.72393,-27.78196 -11.44361,-55.56879 -19.45594,-83.08361 -4.81368,-27.8672 -13.07472,-55.32685 -17.58179,-83.22057 -4.53527,-21.96671 -8.5829,-44.06622 -15.26533,-65.75903 -6.8105,-14.63218 -17.13062,-28.25761 -25.06451,-42.60285 -9.31983,-16.89622 -17.60149,-33.93161 -24.49168,-51.41752 -5.97636,-20.52415 -14.12698,-40.68347 -20.44878,-61.15433 -6.83302,-20.19139 -12.58681,-40.58771 -16.56374,-61.15598 -4.02548,-17.63249 -8.32881,-35.39814 -7.80823,-53.31775 0.0571,-20.19827 0.25035,-40.39704 0.0684,-60.59518 -0.0474,-18.81172 -0.12709,-37.62336 -0.27184,-56.43482 -0.0643,-13.35827 -0.13914,-26.72519 0.75824,-40.07241 1.06753,-9.12493 3.29397,-17.98966 6.30607,-26.89551 0.0605,-12.41407 0.16834,-24.82853 0.54915,-37.24017 1.22068,-12.33172 2.83396,-24.61446 5.91837,-36.80076 3.03129,-12.26627 2.25357,-25.00167 8.70166,-36.83941 6.22213,-12.277138 12.78982,-24.262757 24.6604,-34.497741 31.62764,-26.399699 77.24396,-49.2777191 126.9123,-51.2679862 14.93267,0.028566 29.88372,-0.1117492 44.79726,0.5091774 17.17492,1.0555266 34.20974,3.0851035 49.33421,9.2845958 16.89831,7.774328 28.93731,17.500908 32.25454,31.962813 2.16868,13.808586 0.88048,27.74457 0.6682,41.613666 -1.0182,17.719325 -2.29871,35.513405 -6.98756,52.975055 -5.154,16.82768 -10.23751,33.68539 -18.40592,49.95169 -8.56375,16.49529 -18.69756,32.45174 -29.35246,48.32758 -10.5842,12.95202 -19.94682,26.38337 -31.82479,38.83596 -12.90504,15.84855 -25.73796,31.99058 -41.76742,46.37618 -21.33916,19.84017 -42.64053,39.74918 -60.62449,61.20655 -19.04938,20.72334 -38.66986,41.15554 -60.17314,60.68032 -20.56083,18.09549 -42.16916,35.59653 -63.00053,53.53789 -18.37147,16.89116 -34.66987,34.86026 -54.43778,50.99727 -12.55711,12.82714 -25.72836,25.37661 -39.5683,37.53421 -8.13624,8.53813 -15.65217,17.54897 -17.98838,27.84409 -0.34798,12.15206 -0.37502,24.30636 -0.28559,36.46045 0.39785,19.43388 1.59498,38.89897 5.9084,58.12846 4.53836,17.65267 10.06357,35.53622 22.72959,51.32401 9.48559,7.99932 21.88647,11.59263 36.69075,12.35868 14.30811,0.46055 28.62968,0.14804 42.94797,0.28726 16.62972,0.0302 33.26031,0.0965 49.88959,-0.019 14.6554,-0.0769 29.33474,-0.17553 43.93441,-1.17232 16.52929,-1.28931 32.78244,-3.68395 49.2731,-5.14481 18.18643,-1.34414 35.85357,-4.09617 53.65409,-6.96573 13.95059,-1.96918 27.26317,-5.32801 41.13045,-7.53844 11.47474,-0.88362 22.64372,-2.04977 32.58086,-6.52785 -29.05426,11.81185 -58.21748,23.49287 -87.16273,35.43555 -1.91928,0.79189 4.19347,-1.12047 6.05946,-1.9727 6.58696,-3.00833 11.65898,-7.91608 19.05005,-10.23388 2.23545,-1.08922 4.36992,-2.28813 6.70638,-3.26763 33.05553,-13.85747 66.24048,-27.56298 99.45197,-41.23587 0.28118,-0.1157 14.6994,-5.49953 15.2988,-5.7295 2.2025,-0.84496 8.73514,-3.47367 6.56548,-2.58793 -28.46686,11.62145 -56.97188,23.19689 -85.45784,34.79534 10.75025,-3.48976 20.30773,-9.0111 24.0607,-17.16956 3.9551,-6.83327 10.54816,-12.24892 16.66724,-18.15578 3.27764,-6.75807 0.4115,-14.40411 1.39109,-21.44339 0.11428,-7.40855 -0.0538,-14.8183 0.17706,-22.22617 0.018,-7.10762 0.30637,-14.25758 -1.18053,-21.31136 -2.24096,-8.53266 -6.18182,-15.91904 -17.47534,-20.491 -9.03848,-3.9998 -18.08548,-8.01502 -29.26652,-7.19286 -39.74929,2.98798 -97.85239,37.71362 64.49955,-31.3225 -11.1332,4.47176 -22.48959,11.71796 -26.71524,20.29359 -2.37468,12.84325 -0.31972,25.52483 3.11272,38.22093 0,0 -96.14216,35.56028 -96.14216,35.56028 z"
       inkscape:connector-curvature="0" />
  </g>
</svg>
